<svg width="1787" height="898" viewBox="0 0 1787 898" fill="none" xmlns="http://www.w3.org/2000/svg">
<g filter="url(#filter0_d_2246_739)">
<rect x="1325.74" y="267.581" width="402.742" height="402.742" rx="201.371" transform="rotate(90 1325.74 267.581)" fill="url(#paint0_radial_2246_739)" shape-rendering="crispEdges"/>
<rect x="1324.83" y="268.495" width="400.916" height="400.916" rx="200.458" transform="rotate(90 1324.83 268.495)" stroke="white" stroke-width="1.82649" style="mix-blend-mode:soft-light" shape-rendering="crispEdges"/>
</g>
<g filter="url(#filter1_d_2246_739)">
<rect x="1109.3" y="402.742" width="402.742" height="402.742" rx="201.371" fill="url(#paint1_radial_2246_739)" shape-rendering="crispEdges"/>
<rect x="1110.67" y="404.112" width="400.002" height="400.002" rx="200.001" stroke="white" stroke-width="2.73974" style="mix-blend-mode:soft-light" shape-rendering="crispEdges"/>
</g>
<g filter="url(#filter2_d_2246_739)">
<rect x="1702" y="267.581" width="402.742" height="402.742" rx="201.371" transform="rotate(90 1702 267.581)" fill="url(#paint2_radial_2246_739)" shape-rendering="crispEdges"/>
<rect x="1700.63" y="268.951" width="400.002" height="400.002" rx="200.001" transform="rotate(90 1700.63 268.951)" stroke="white" stroke-width="2.73974" style="mix-blend-mode:soft-light" shape-rendering="crispEdges"/>
</g>
<g filter="url(#filter3_d_2246_739)">
<rect x="1612.5" y="27.3974" width="402.742" height="402.742" rx="201.371" transform="rotate(90 1612.5 27.3974)" fill="url(#paint3_radial_2246_739)" shape-rendering="crispEdges"/>
<rect x="1611.59" y="28.3107" width="400.916" height="400.916" rx="200.458" transform="rotate(90 1611.59 28.3107)" stroke="white" stroke-width="1.82649" style="mix-blend-mode:soft-light" shape-rendering="crispEdges"/>
</g>
<g filter="url(#filter4_d_2246_739)">
<mask id="path-9-inside-1_2246_739" fill="white">
<path d="M1214.78 27.3974C1326 27.3974 1416.15 117.554 1416.15 228.768C1416.15 339.983 1326 430.14 1214.78 430.14C1103.57 430.14 1013.41 339.983 1013.41 228.768C1013.41 117.554 1103.57 27.3974 1214.78 27.3974Z"/>
</mask>
<path d="M1214.78 27.3974C1326 27.3974 1416.15 117.554 1416.15 228.768C1416.15 339.983 1326 430.14 1214.78 430.14C1103.57 430.14 1013.41 339.983 1013.41 228.768C1013.41 117.554 1103.57 27.3974 1214.78 27.3974Z" fill="url(#paint4_radial_2246_739)" shape-rendering="crispEdges"/>
<path d="M1214.78 27.9111C1214.78 27.5687 1214.78 27.2262 1214.78 26.8837C1193.61 26.7618 1172.45 29.9601 1152.28 36.4214C1070.74 61.4299 1010.76 143.141 1012.04 228.768C1009.41 336.768 1106.84 434.109 1214.78 431.414C1322.74 433.972 1419.9 336.555 1417.14 228.768C1418.3 143.314 1358.6 61.8258 1277.22 36.6096C1257.09 30.1018 1235.95 26.838 1214.78 26.8837C1214.78 27.2262 1214.78 27.5687 1214.78 27.9111C1235.85 27.9416 1256.85 31.2621 1276.84 37.7967C1357.63 63.1416 1416.52 144.163 1415.16 228.768C1417.62 335.507 1321.35 431.523 1214.78 428.865C1108.2 431.386 1012.19 335.294 1014.78 228.768C1013.55 144.337 1072.16 63.5374 1152.79 37.9849C1172.74 31.4038 1193.72 28.0178 1214.78 27.9111ZM1214.78 26.8837L1214.78 27.9111L1214.78 26.8837Z" fill="white" style="mix-blend-mode:soft-light" mask="url(#path-9-inside-1_2246_739)"/>
</g>
<g filter="url(#filter5_d_2246_739)">
<ellipse cx="1312.78" cy="407.666" rx="53.2167" ry="52.9337" fill="url(#paint5_radial_2246_739)"/>
</g>
<g opacity="0.7">
<path d="M1293.41 431.532H1332.74C1336.06 431.532 1338.02 430.051 1338.02 427.57C1338.02 420.052 1328.45 409.683 1313.08 409.683C1297.74 409.683 1288.17 420.052 1288.17 427.57C1288.17 430.051 1290.13 431.532 1293.41 431.532ZM1313.08 404.498C1319.41 404.498 1324.98 398.906 1324.98 391.61C1324.98 384.352 1319.41 379.093 1313.08 379.093C1306.78 379.093 1301.21 384.5 1301.21 391.684C1301.21 398.906 1306.78 404.498 1313.08 404.498Z" fill="black"/>
</g>
<g opacity="0.78">
<path d="M6.7307 411.397V406.139H17.6944C20.1833 406.139 22.0764 405.639 23.3734 404.64C24.688 403.641 25.3453 402.186 25.3453 400.276V400.223C25.3453 398.944 25.0386 397.875 24.4251 397.016C23.8291 396.139 22.9352 395.491 21.7433 395.07C20.5514 394.632 19.0703 394.413 17.3 394.413H6.7307V389.496H16.222C18.6759 389.496 20.5427 389.014 21.8222 388.05C23.1017 387.086 23.7415 385.702 23.7415 383.896V383.844C23.7415 382.213 23.1806 380.951 22.0588 380.058C20.9546 379.164 19.3946 378.717 17.3789 378.717H6.7307V373.458H19.0878C21.4015 373.458 23.3997 373.853 25.0824 374.641C26.7826 375.413 28.0972 376.508 29.0261 377.928C29.9727 379.348 30.4459 381.022 30.4459 382.95V383.002C30.4459 384.369 30.1304 385.649 29.4994 386.841C28.8859 388.015 28.0358 389.006 26.9491 389.812C25.8624 390.601 24.6442 391.091 23.2945 391.284V391.416C25.0649 391.573 26.6248 392.064 27.9745 392.888C29.3241 393.712 30.3758 394.79 31.1295 396.122C31.8832 397.436 32.26 398.935 32.26 400.618V400.67C32.26 402.879 31.7342 404.789 30.6825 406.402C29.6309 407.997 28.1322 409.233 26.1866 410.109C24.2586 410.968 21.9449 411.397 19.2456 411.397H6.7307ZM3.33906 411.397V373.458H10.1223V411.397H3.33906ZM45.2082 411.871C43.3678 411.871 41.7377 411.52 40.318 410.819C38.9157 410.1 37.8202 409.11 37.0315 407.848C36.2603 406.568 35.8746 405.105 35.8746 403.457V403.405C35.8746 401.74 36.2865 400.32 37.1104 399.145C37.9517 397.953 39.1611 397.016 40.7386 396.332C42.3161 395.631 44.2267 395.21 46.4702 395.07L57.1184 394.413V398.751L47.3904 399.356C45.7779 399.461 44.5422 399.847 43.6833 400.513C42.8244 401.179 42.395 402.064 42.395 403.168V403.194C42.395 404.334 42.8244 405.236 43.6833 405.902C44.5597 406.551 45.7165 406.875 47.1538 406.875C48.4158 406.875 49.5376 406.621 50.5192 406.113C51.5183 405.604 52.307 404.912 52.8854 404.036C53.4639 403.159 53.7531 402.169 53.7531 401.065V392.704C53.7531 391.302 53.3061 390.197 52.4122 389.391C51.5358 388.567 50.265 388.155 48.5999 388.155C47.0574 388.155 45.8217 388.488 44.8927 389.155C43.9637 389.803 43.3853 390.644 43.1575 391.679L43.1049 391.915H37.0578L37.0841 391.6C37.2243 389.952 37.7764 388.48 38.7404 387.183C39.7045 385.868 41.0366 384.834 42.7368 384.08C44.4545 383.326 46.4878 382.95 48.8365 382.95C51.1677 382.95 53.1834 383.335 54.8836 384.106C56.6013 384.878 57.9247 385.956 58.8537 387.34C59.8002 388.725 60.2734 390.355 60.2734 392.231V411.397H53.7531V407.112H53.5953C53.0695 408.076 52.3859 408.917 51.5446 409.636C50.7032 410.354 49.7392 410.907 48.6525 411.292C47.5833 411.678 46.4352 411.871 45.2082 411.871ZM66.1228 411.397V383.528H72.6432V388.339H72.8009C73.2216 386.657 73.9841 385.342 75.0883 384.396C76.2101 383.432 77.5773 382.95 79.1899 382.95C79.593 382.95 79.9786 382.976 80.3467 383.029C80.7148 383.081 81.0215 383.142 81.2669 383.213V389.128C81.004 389.023 80.6271 388.935 80.1364 388.865C79.6631 388.795 79.146 388.76 78.5851 388.76C77.3582 388.76 76.2978 389.014 75.4038 389.523C74.5099 390.013 73.8263 390.741 73.3531 391.705C72.8798 392.669 72.6432 393.843 72.6432 395.228V411.397H66.1228ZM96.6865 421.152C94.2326 421.152 92.0855 420.81 90.245 420.126C88.4221 419.46 86.9673 418.54 85.8806 417.366C84.7939 416.191 84.119 414.877 83.8561 413.422L83.8035 413.185H90.2187L90.3239 413.396C90.6745 414.202 91.3931 414.868 92.4798 415.394C93.5841 415.937 94.9776 416.209 96.6602 416.209C98.7986 416.209 100.437 415.683 101.577 414.631C102.716 413.58 103.286 412.169 103.286 410.398V406.376H103.154C102.646 407.375 101.962 408.234 101.104 408.952C100.262 409.671 99.2719 410.232 98.1326 410.635C97.0108 411.038 95.7838 411.24 94.4517 411.24C92.1205 411.24 90.0873 410.67 88.352 409.531C86.6343 408.391 85.3022 406.779 84.3557 404.693C83.4267 402.59 82.9622 400.092 82.9622 397.2V397.174C82.9622 394.229 83.4355 391.705 84.382 389.601C85.346 387.481 86.6956 385.842 88.4309 384.685C90.1662 383.528 92.2082 382.95 94.5569 382.95C95.8715 382.95 97.0809 383.178 98.1852 383.633C99.2894 384.071 100.253 384.685 101.077 385.474C101.919 386.262 102.602 387.191 103.128 388.261H103.286V383.528H109.832V410.609C109.832 412.712 109.298 414.552 108.229 416.13C107.159 417.725 105.643 418.961 103.68 419.837C101.717 420.713 99.3858 421.152 96.6865 421.152ZM96.5025 406.192C97.8697 406.192 99.0616 405.832 100.078 405.114C101.095 404.377 101.884 403.343 102.444 402.011C103.023 400.679 103.312 399.119 103.312 397.331V397.305C103.312 395.5 103.023 393.94 102.444 392.625C101.866 391.293 101.068 390.268 100.052 389.549C99.0353 388.83 97.8521 388.471 96.5025 388.471C95.1003 388.471 93.8821 388.83 92.8479 389.549C91.8138 390.268 91.0163 391.284 90.4554 392.599C89.8945 393.913 89.614 395.482 89.614 397.305V397.331C89.614 399.154 89.8945 400.732 90.4554 402.064C91.0163 403.378 91.8138 404.395 92.8479 405.114C93.8821 405.832 95.1003 406.192 96.5025 406.192ZM123.964 411.871C122.123 411.871 120.493 411.52 119.073 410.819C117.671 410.1 116.576 409.11 115.787 407.848C115.016 406.568 114.63 405.105 114.63 403.457V403.405C114.63 401.74 115.042 400.32 115.866 399.145C116.707 397.953 117.917 397.016 119.494 396.332C121.072 395.631 122.982 395.21 125.226 395.07L135.874 394.413V398.751L126.146 399.356C124.533 399.461 123.298 399.847 122.439 400.513C121.58 401.179 121.151 402.064 121.151 403.168V403.194C121.151 404.334 121.58 405.236 122.439 405.902C123.315 406.551 124.472 406.875 125.909 406.875C127.171 406.875 128.293 406.621 129.275 406.113C130.274 405.604 131.063 404.912 131.641 404.036C132.219 403.159 132.509 402.169 132.509 401.065V392.704C132.509 391.302 132.062 390.197 131.168 389.391C130.291 388.567 129.021 388.155 127.355 388.155C125.813 388.155 124.577 388.488 123.648 389.155C122.719 389.803 122.141 390.644 121.913 391.679L121.86 391.915H115.813L115.84 391.6C115.98 389.952 116.532 388.48 117.496 387.183C118.46 385.868 119.792 384.834 121.492 384.08C123.21 383.326 125.243 382.95 127.592 382.95C129.923 382.95 131.939 383.335 133.639 384.106C135.357 384.878 136.68 385.956 137.609 387.34C138.556 388.725 139.029 390.355 139.029 392.231V411.397H132.509V407.112H132.351C131.825 408.076 131.141 408.917 130.3 409.636C129.459 410.354 128.495 410.907 127.408 411.292C126.339 411.678 125.191 411.871 123.964 411.871ZM145.062 411.397V383.528H151.609V411.397H145.062ZM148.323 379.532C147.306 379.532 146.447 379.181 145.746 378.48C145.045 377.779 144.694 376.938 144.694 375.956C144.694 374.957 145.045 374.116 145.746 373.432C146.447 372.731 147.306 372.38 148.323 372.38C149.357 372.38 150.224 372.731 150.925 373.432C151.627 374.116 151.977 374.957 151.977 375.956C151.977 376.938 151.627 377.779 150.925 378.48C150.224 379.181 149.357 379.532 148.323 379.532ZM157.721 411.397V383.528H164.242V387.892H164.399C165.118 386.385 166.187 385.184 167.607 384.291C169.044 383.397 170.815 382.95 172.918 382.95C175.985 382.95 178.352 383.879 180.017 385.737C181.699 387.595 182.541 390.136 182.541 393.361V411.397H175.994V394.676C175.994 392.695 175.53 391.17 174.601 390.101C173.672 389.014 172.278 388.471 170.42 388.471C169.176 388.471 168.089 388.76 167.16 389.339C166.231 389.899 165.512 390.688 165.004 391.705C164.496 392.704 164.242 393.878 164.242 395.228V411.397H157.721ZM188.522 411.397V383.528H195.068V411.397H188.522ZM191.782 379.532C190.765 379.532 189.906 379.181 189.205 378.48C188.504 377.779 188.154 376.938 188.154 375.956C188.154 374.957 188.504 374.116 189.205 373.432C189.906 372.731 190.765 372.38 191.782 372.38C192.816 372.38 193.684 372.731 194.385 373.432C195.086 374.116 195.436 374.957 195.436 375.956C195.436 376.938 195.086 377.779 194.385 378.48C193.684 379.181 192.816 379.532 191.782 379.532ZM201.181 411.397V383.528H207.701V387.892H207.859C208.577 386.385 209.647 385.184 211.066 384.291C212.504 383.397 214.274 382.95 216.377 382.95C219.445 382.95 221.811 383.879 223.476 385.737C225.159 387.595 226 390.136 226 393.361V411.397H219.453V394.676C219.453 392.695 218.989 391.17 218.06 390.101C217.131 389.014 215.738 388.471 213.88 388.471C212.635 388.471 211.548 388.76 210.619 389.339C209.69 389.899 208.972 390.688 208.463 391.705C207.955 392.704 207.701 393.878 207.701 395.228V411.397H201.181ZM244.364 421.152C241.911 421.152 239.763 420.81 237.923 420.126C236.1 419.46 234.645 418.54 233.558 417.366C232.472 416.191 231.797 414.877 231.534 413.422L231.481 413.185H237.897L238.002 413.396C238.352 414.202 239.071 414.868 240.158 415.394C241.262 415.937 242.655 416.209 244.338 416.209C246.477 416.209 248.115 415.683 249.255 414.631C250.394 413.58 250.964 412.169 250.964 410.398V406.376H250.832C250.324 407.375 249.64 408.234 248.781 408.952C247.94 409.671 246.95 410.232 245.81 410.635C244.689 411.038 243.462 411.24 242.13 411.24C239.798 411.24 237.765 410.67 236.03 409.531C234.312 408.391 232.98 406.779 232.034 404.693C231.105 402.59 230.64 400.092 230.64 397.2V397.174C230.64 394.229 231.113 391.705 232.06 389.601C233.024 387.481 234.374 385.842 236.109 384.685C237.844 383.528 239.886 382.95 242.235 382.95C243.549 382.95 244.759 383.178 245.863 383.633C246.967 384.071 247.931 384.685 248.755 385.474C249.596 386.262 250.28 387.191 250.806 388.261H250.964V383.528H257.51V410.609C257.51 412.712 256.976 414.552 255.907 416.13C254.837 417.725 253.321 418.961 251.358 419.837C249.395 420.713 247.064 421.152 244.364 421.152ZM244.18 406.192C245.548 406.192 246.739 405.832 247.756 405.114C248.773 404.377 249.561 403.343 250.122 402.011C250.701 400.679 250.99 399.119 250.99 397.331V397.305C250.99 395.5 250.701 393.94 250.122 392.625C249.544 391.293 248.746 390.268 247.73 389.549C246.713 388.83 245.53 388.471 244.18 388.471C242.778 388.471 241.56 388.83 240.526 389.549C239.492 390.268 238.694 391.284 238.133 392.599C237.572 393.913 237.292 395.482 237.292 397.305V397.331C237.292 399.154 237.572 400.732 238.133 402.064C238.694 403.378 239.492 404.395 240.526 405.114C241.56 405.832 242.778 406.192 244.18 406.192ZM280.252 411.397L272.68 383.528H279.253L283.959 404.93H284.09L289.533 383.528H295.79L301.259 404.93H301.39L306.097 383.528H312.564L305.045 411.397H298.156L292.661 391.021H292.53L287.061 411.397H280.252ZM316.573 411.397V383.528H323.12V411.397H316.573ZM319.833 379.532C318.817 379.532 317.958 379.181 317.257 378.48C316.556 377.779 316.205 376.938 316.205 375.956C316.205 374.957 316.556 374.116 317.257 373.432C317.958 372.731 318.817 372.38 319.833 372.38C320.868 372.38 321.735 372.731 322.436 373.432C323.137 374.116 323.488 374.957 323.488 375.956C323.488 376.938 323.137 377.779 322.436 378.48C321.735 379.181 320.868 379.532 319.833 379.532ZM339.565 411.949C336.673 411.949 334.517 411.318 333.097 410.056C331.695 408.794 330.994 406.726 330.994 403.852V388.576H327.05V383.528H330.994V376.456H337.646V383.528H342.825V388.576H337.646V403.326C337.646 404.675 337.944 405.613 338.54 406.139C339.153 406.647 340.047 406.901 341.221 406.901C341.554 406.901 341.844 406.893 342.089 406.875C342.352 406.84 342.597 406.814 342.825 406.796V411.713C342.44 411.765 341.966 411.818 341.405 411.871C340.862 411.923 340.249 411.949 339.565 411.949ZM348.044 411.397V373.458H354.59V388.208H354.722C355.458 386.525 356.553 385.228 358.008 384.317C359.48 383.405 361.251 382.95 363.319 382.95C365.335 382.95 367.079 383.414 368.551 384.343C370.023 385.255 371.163 386.543 371.969 388.208C372.775 389.856 373.178 391.801 373.178 394.045V411.397H366.632V395.333C366.632 393.195 366.115 391.521 365.081 390.311C364.046 389.084 362.592 388.471 360.716 388.471C359.489 388.471 358.411 388.769 357.482 389.365C356.571 389.943 355.861 390.75 355.353 391.784C354.844 392.8 354.59 393.983 354.59 395.333V411.397H348.044ZM400.705 411.949C397.813 411.949 395.657 411.318 394.237 410.056C392.835 408.794 392.134 406.726 392.134 403.852V388.576H388.19V383.528H392.134V376.456H398.786V383.528H403.965V388.576H398.786V403.326C398.786 404.675 399.084 405.613 399.68 406.139C400.293 406.647 401.187 406.901 402.361 406.901C402.694 406.901 402.984 406.893 403.229 406.875C403.492 406.84 403.737 406.814 403.965 406.796V411.713C403.58 411.765 403.106 411.818 402.545 411.871C402.002 411.923 401.389 411.949 400.705 411.949ZM409.184 411.397V373.458H415.73V388.208H415.862C416.598 386.525 417.693 385.228 419.148 384.317C420.62 383.405 422.391 382.95 424.459 382.95C426.475 382.95 428.219 383.414 429.691 384.343C431.163 385.255 432.303 386.543 433.109 388.208C433.915 389.856 434.318 391.801 434.318 394.045V411.397H427.772V395.333C427.772 393.195 427.255 391.521 426.221 390.311C425.186 389.084 423.732 388.471 421.856 388.471C420.629 388.471 419.551 388.769 418.622 389.365C417.711 389.943 417.001 390.75 416.493 391.784C415.984 392.8 415.73 393.983 415.73 395.333V411.397H409.184ZM452.394 411.949C449.607 411.949 447.205 411.362 445.19 410.188C443.191 409.014 441.658 407.348 440.589 405.193C439.519 403.037 438.985 400.486 438.985 397.542V397.515C438.985 394.588 439.519 392.038 440.589 389.864C441.675 387.673 443.191 385.973 445.137 384.764C447.1 383.554 449.414 382.95 452.078 382.95C454.725 382.95 457.012 383.537 458.94 384.711C460.886 385.868 462.376 387.498 463.41 389.601C464.462 391.705 464.987 394.159 464.987 396.963V399.067H442.219V394.702H461.859L458.704 398.777V396.253C458.704 394.43 458.423 392.914 457.862 391.705C457.301 390.495 456.53 389.593 455.549 388.997C454.567 388.383 453.436 388.077 452.157 388.077C450.86 388.077 449.703 388.392 448.686 389.023C447.687 389.637 446.899 390.557 446.32 391.784C445.759 393.011 445.479 394.501 445.479 396.253V398.777C445.479 400.478 445.759 401.932 446.32 403.142C446.899 404.334 447.714 405.254 448.765 405.902C449.817 406.533 451.07 406.849 452.525 406.849C453.612 406.849 454.567 406.682 455.391 406.349C456.215 405.999 456.889 405.552 457.415 405.008C457.959 404.465 458.336 403.878 458.546 403.247L458.598 403.063H464.698L464.646 403.352C464.418 404.421 463.997 405.473 463.384 406.507C462.77 407.524 461.946 408.444 460.912 409.268C459.878 410.092 458.651 410.749 457.231 411.24C455.812 411.713 454.199 411.949 452.394 411.949ZM481.734 411.397V373.458H505.923V379.164H488.517V390.39H504.424V395.911H488.517V411.397H481.734ZM520.238 411.949C518.187 411.949 516.443 411.538 515.006 410.714C513.586 409.872 512.499 408.672 511.746 407.112C510.992 405.552 510.615 403.703 510.615 401.564V383.528H517.136V400.25C517.136 402.23 517.6 403.764 518.529 404.851C519.458 405.92 520.86 406.455 522.736 406.455C523.665 406.455 524.506 406.297 525.26 405.981C526.031 405.648 526.688 405.184 527.232 404.588C527.775 403.992 528.187 403.282 528.467 402.458C528.748 401.617 528.888 400.688 528.888 399.671V383.528H535.435V411.397H528.888V407.033H528.757C528.266 408.014 527.626 408.882 526.837 409.636C526.048 410.372 525.102 410.942 523.998 411.345C522.893 411.748 521.64 411.949 520.238 411.949ZM551.696 411.949C548.803 411.949 546.648 411.318 545.228 410.056C543.826 408.794 543.124 406.726 543.124 403.852V388.576H539.181V383.528H543.124V376.456H549.776V383.528H554.956V388.576H549.776V403.326C549.776 404.675 550.074 405.613 550.67 406.139C551.284 406.647 552.178 406.901 553.352 406.901C553.685 406.901 553.974 406.893 554.22 406.875C554.483 406.84 554.728 406.814 554.956 406.796V411.713C554.57 411.765 554.097 411.818 553.536 411.871C552.993 411.923 552.379 411.949 551.696 411.949ZM569.482 411.949C567.431 411.949 565.687 411.538 564.249 410.714C562.83 409.872 561.743 408.672 560.989 407.112C560.236 405.552 559.859 403.703 559.859 401.564V383.528H566.379V400.25C566.379 402.23 566.844 403.764 567.773 404.851C568.702 405.92 570.104 406.455 571.979 406.455C572.908 406.455 573.75 406.297 574.503 405.981C575.274 405.648 575.932 405.184 576.475 404.588C577.018 403.992 577.43 403.282 577.711 402.458C577.991 401.617 578.132 400.688 578.132 399.671V383.528H584.678V411.397H578.132V407.033H578C577.509 408.014 576.87 408.882 576.081 409.636C575.292 410.372 574.345 410.942 573.241 411.345C572.137 411.748 570.884 411.949 569.482 411.949ZM590.606 411.397V383.528H597.127V388.339H597.285C597.705 386.657 598.468 385.342 599.572 384.396C600.694 383.432 602.061 382.95 603.673 382.95C604.077 382.95 604.462 382.976 604.83 383.029C605.198 383.081 605.505 383.142 605.751 383.213V389.128C605.488 389.023 605.111 388.935 604.62 388.865C604.147 388.795 603.63 388.76 603.069 388.76C601.842 388.76 600.781 389.014 599.887 389.523C598.994 390.013 598.31 390.741 597.837 391.705C597.363 392.669 597.127 393.843 597.127 395.228V411.397H590.606ZM620.855 411.949C618.068 411.949 615.666 411.362 613.651 410.188C611.653 409.014 610.119 407.348 609.05 405.193C607.98 403.037 607.446 400.486 607.446 397.542V397.515C607.446 394.588 607.98 392.038 609.05 389.864C610.136 387.673 611.653 385.973 613.598 384.764C615.561 383.554 617.875 382.95 620.539 382.95C623.186 382.95 625.473 383.537 627.401 384.711C629.347 385.868 630.837 387.498 631.871 389.601C632.923 391.705 633.448 394.159 633.448 396.963V399.067H610.68V394.702H630.32L627.165 398.777V396.253C627.165 394.43 626.884 392.914 626.323 391.705C625.762 390.495 624.991 389.593 624.01 388.997C623.028 388.383 621.898 388.077 620.618 388.077C619.321 388.077 618.164 388.392 617.147 389.023C616.148 389.637 615.36 390.557 614.781 391.784C614.22 393.011 613.94 394.501 613.94 396.253V398.777C613.94 400.478 614.22 401.932 614.781 403.142C615.36 404.334 616.175 405.254 617.226 405.902C618.278 406.533 619.531 406.849 620.986 406.849C622.073 406.849 623.028 406.682 623.852 406.349C624.676 405.999 625.351 405.552 625.876 405.008C626.42 404.465 626.797 403.878 627.007 403.247L627.06 403.063H633.159L633.107 403.352C632.879 404.421 632.458 405.473 631.845 406.507C631.231 407.524 630.407 408.444 629.373 409.268C628.339 410.092 627.112 410.749 625.692 411.24C624.273 411.713 622.66 411.949 620.855 411.949Z" fill="black"/>
<path d="M14.189 462.872C7.02524 462.872 2.63199 458.519 2.63199 452.364V435.82C2.63199 434.395 3.46315 433.525 4.84841 433.525C6.21388 433.525 7.06482 434.395 7.06482 435.82V451.988C7.06482 456.065 9.63744 458.934 14.189 458.934C18.7406 458.934 21.333 456.065 21.333 451.988V435.82C21.333 434.395 22.1641 433.525 23.5494 433.525C24.9149 433.525 25.746 434.395 25.746 435.82V452.364C25.746 458.519 21.3528 462.872 14.189 462.872ZM33.038 462.773C31.7715 462.773 30.9008 461.922 30.9008 460.517V443.36C30.9008 442.054 31.6924 441.203 32.9391 441.203C34.166 441.203 35.017 442.054 35.017 443.38V445.022H35.1159C36.2439 442.648 38.4208 441.223 41.6266 441.223C46.2178 441.223 48.8498 444.152 48.8498 448.921V460.517C48.8498 461.922 47.9593 462.773 46.6927 462.773C45.446 462.773 44.5555 461.922 44.5555 460.517V449.752C44.5555 446.625 43.0911 444.904 40.1226 444.904C37.1147 444.904 35.1753 447.041 35.1753 450.266V460.517C35.1753 461.922 34.2848 462.773 33.038 462.773ZM61.2079 462.754C55.9439 462.754 52.4609 458.558 52.4609 451.988C52.4609 445.418 55.9439 441.242 61.1683 441.242C64.1565 441.242 66.5312 442.746 67.6988 445.042H67.778V435.721C67.778 434.316 68.6685 433.465 69.935 433.465C71.1817 433.465 72.0723 434.316 72.0723 435.721V460.636C72.0723 461.982 71.2015 462.773 69.9548 462.773C68.7476 462.773 67.778 461.982 67.778 460.636V458.697H67.7186C66.65 461.131 64.4533 462.754 61.2079 462.754ZM62.3359 459.132C65.6209 459.132 67.8175 456.342 67.8175 451.988C67.8175 447.674 65.6209 444.844 62.3359 444.844C58.9519 444.844 56.8344 447.615 56.8344 451.988C56.8344 456.381 58.9519 459.132 62.3359 459.132ZM85.8948 462.793C79.6215 462.793 75.9407 458.815 75.9407 452.087C75.9407 445.477 79.7007 441.203 85.5979 441.203C91.139 441.203 94.9583 445.2 94.9583 450.88C94.9583 452.265 94.1667 453.057 92.8409 453.057H80.2548V453.156C80.2548 456.955 82.392 459.33 85.7958 459.33C88.131 459.33 89.5954 458.519 91.1785 456.362C91.6337 455.827 92.0691 455.61 92.6825 455.61C93.7116 455.61 94.4636 456.282 94.4636 457.351C94.4636 457.687 94.3448 458.083 94.1667 458.499C92.8013 461.23 89.7735 462.793 85.8948 462.793ZM80.2746 450.069H90.6838C90.5849 446.803 88.5465 444.646 85.5781 444.646C82.6295 444.646 80.4923 446.823 80.2746 450.069ZM100.825 462.773C99.5392 462.773 98.6882 461.903 98.6882 460.517V443.36C98.6882 442.054 99.5194 441.203 100.727 441.203C101.914 441.203 102.745 442.054 102.745 443.36V445.141H102.844C103.418 442.806 105.337 441.242 107.415 441.242C108.167 441.242 108.741 441.421 109.097 441.757C109.493 442.074 109.671 442.588 109.671 443.261C109.671 443.934 109.454 444.429 109.038 444.765C108.603 445.141 107.969 445.319 107.079 445.319C104.15 445.339 102.963 447.298 102.963 449.89V460.517C102.963 461.903 102.092 462.773 100.825 462.773ZM120.07 462.793C115.974 462.793 112.966 461.111 111.976 458.558C111.838 458.242 111.798 457.945 111.798 457.668C111.798 456.599 112.57 455.966 113.639 455.966C114.351 455.966 114.965 456.302 115.499 457.094C116.568 458.776 117.814 459.528 120.288 459.528C122.722 459.528 124.365 458.479 124.365 456.757C124.365 455.392 123.553 454.66 121.317 454.125L118.032 453.354C113.995 452.404 112.016 450.425 112.016 447.456C112.016 443.696 115.281 441.203 120.229 441.203C123.989 441.203 127.076 443.122 127.669 445.576C127.709 445.814 127.749 446.012 127.749 446.21C127.749 447.16 127.155 447.793 126.086 447.793C125.394 447.793 124.78 447.555 124.365 446.882C123.434 445.299 122.168 444.468 120.07 444.468C117.775 444.468 116.192 445.596 116.192 447.219C116.192 448.525 117.201 449.435 119.397 449.95L122.623 450.702C126.997 451.711 128.679 453.274 128.679 456.362C128.679 460.221 125.216 462.793 120.07 462.793ZM133.636 457.41V444.963H132.132C131.023 444.963 130.351 444.33 130.351 443.281C130.351 442.212 131.023 441.579 132.132 441.579H133.636V438.492C133.636 437.126 134.486 436.216 135.793 436.216C137.079 436.216 137.93 437.126 137.93 438.492V441.579H140.364C141.472 441.579 142.145 442.232 142.145 443.281C142.145 444.33 141.472 444.963 140.364 444.963H137.93V456.461C137.93 458.123 138.504 458.875 140.047 458.994L140.384 459.013C141.611 459.132 142.224 459.627 142.224 460.636C142.224 461.922 141.235 462.575 139.137 462.575H138.919C135.417 462.575 133.636 460.854 133.636 457.41ZM151.594 462.754C147.517 462.754 144.648 460.221 144.648 456.48C144.648 452.839 147.458 450.603 152.386 450.326L158.105 449.989V448.386C158.105 446.071 156.541 444.686 153.929 444.686C151.871 444.686 150.506 445.418 149.318 447.318C148.883 447.951 148.329 448.228 147.577 448.228C146.508 448.228 145.736 447.516 145.736 446.447C145.736 446.012 145.855 445.537 146.112 445.062C147.201 442.707 150.347 441.203 154.088 441.203C159.134 441.203 162.359 443.874 162.359 448.05V460.616C162.359 461.962 161.509 462.773 160.301 462.773C159.114 462.773 158.303 462.002 158.263 460.735V458.974H158.164C156.957 461.289 154.305 462.754 151.594 462.754ZM152.762 459.37C155.75 459.37 158.105 457.311 158.105 454.6V452.958L152.96 453.274C150.407 453.453 148.962 454.581 148.962 456.362C148.962 458.182 150.486 459.37 152.762 459.37ZM169.058 462.773C167.791 462.773 166.921 461.922 166.921 460.517V443.36C166.921 442.054 167.712 441.203 168.959 441.203C170.186 441.203 171.037 442.054 171.037 443.38V445.022H171.136C172.264 442.648 174.441 441.223 177.646 441.223C182.238 441.223 184.87 444.152 184.87 448.921V460.517C184.87 461.922 183.979 462.773 182.712 462.773C181.466 462.773 180.575 461.922 180.575 460.517V449.752C180.575 446.625 179.111 444.904 176.142 444.904C173.134 444.904 171.195 447.041 171.195 450.266V460.517C171.195 461.922 170.305 462.773 169.058 462.773ZM197.228 462.754C191.964 462.754 188.481 458.558 188.481 451.988C188.481 445.418 191.964 441.242 197.188 441.242C200.176 441.242 202.551 442.746 203.719 445.042H203.798V435.721C203.798 434.316 204.688 433.465 205.955 433.465C207.202 433.465 208.092 434.316 208.092 435.721V460.636C208.092 461.982 207.221 462.773 205.975 462.773C204.767 462.773 203.798 461.982 203.798 460.636V458.697H203.738C202.67 461.131 200.473 462.754 197.228 462.754ZM198.356 459.132C201.641 459.132 203.837 456.342 203.837 451.988C203.837 447.674 201.641 444.844 198.356 444.844C194.972 444.844 192.854 447.615 192.854 451.988C192.854 456.381 194.972 459.132 198.356 459.132ZM215.166 438.432C213.801 438.432 212.693 437.324 212.693 435.979C212.693 434.613 213.801 433.544 215.166 433.544C216.552 433.544 217.66 434.613 217.66 435.979C217.66 437.324 216.552 438.432 215.166 438.432ZM215.166 462.773C213.88 462.773 213.029 461.883 213.029 460.517V443.479C213.029 442.093 213.88 441.203 215.166 441.203C216.453 441.203 217.304 442.093 217.304 443.479V460.517C217.304 461.883 216.453 462.773 215.166 462.773ZM224.22 462.773C222.953 462.773 222.082 461.922 222.082 460.517V443.36C222.082 442.054 222.874 441.203 224.121 441.203C225.348 441.203 226.199 442.054 226.199 443.38V445.022H226.297C227.425 442.648 229.602 441.223 232.808 441.223C237.399 441.223 240.031 444.152 240.031 448.921V460.517C240.031 461.922 239.141 462.773 237.874 462.773C236.628 462.773 235.737 461.922 235.737 460.517V449.752C235.737 446.625 234.273 444.904 231.304 444.904C228.296 444.904 226.357 447.041 226.357 450.266V460.517C226.357 461.922 225.466 462.773 224.22 462.773ZM253.3 470.234C249.52 470.194 246.532 468.73 245.107 466.474C244.83 465.999 244.711 465.564 244.711 465.069C244.711 464.079 245.443 463.367 246.532 463.367C247.185 463.367 247.6 463.585 248.174 464.159C249.876 465.94 251.341 466.711 253.379 466.751C256.862 466.791 258.979 464.812 258.979 461.903V458.598H258.88C257.713 460.854 255.259 462.338 252.29 462.338C247.046 462.338 243.643 458.242 243.643 451.81C243.643 445.299 247.007 441.242 252.389 441.242C255.338 441.242 257.634 442.727 258.9 445.082H258.979V443.4C258.979 442.014 259.909 441.203 261.136 441.203C262.363 441.203 263.274 442.014 263.274 443.4V461.823C263.274 466.969 259.494 470.293 253.3 470.234ZM253.438 458.855C256.783 458.855 258.999 456.124 258.999 451.85C258.999 447.575 256.783 444.765 253.438 444.765C250.153 444.765 248.016 447.496 248.016 451.83C248.016 456.183 250.153 458.855 253.438 458.855ZM277.778 462.714C276.453 462.714 275.562 461.903 275.562 460.695C275.562 460.359 275.641 459.924 275.839 459.389L284.527 435.84C285.101 434.257 286.07 433.525 287.634 433.525C289.177 433.525 290.127 434.237 290.721 435.82L299.428 459.389C299.626 459.943 299.705 460.319 299.705 460.695C299.705 461.863 298.775 462.714 297.489 462.714C296.301 462.714 295.648 462.16 295.253 460.893L293.076 454.739H282.152L279.995 460.874C279.579 462.16 278.926 462.714 277.778 462.714ZM283.28 451.117H291.948L287.653 438.591H287.535L283.28 451.117ZM311.549 470.234C307.769 470.194 304.781 468.73 303.356 466.474C303.079 465.999 302.96 465.564 302.96 465.069C302.96 464.079 303.692 463.367 304.781 463.367C305.434 463.367 305.849 463.585 306.423 464.159C308.125 465.94 309.59 466.711 311.628 466.751C315.111 466.791 317.228 464.812 317.228 461.903V458.598H317.129C315.962 460.854 313.508 462.338 310.539 462.338C305.295 462.338 301.891 458.242 301.891 451.81C301.891 445.299 305.256 441.242 310.638 441.242C313.587 441.242 315.883 442.727 317.149 445.082H317.228V443.4C317.228 442.014 318.158 441.203 319.385 441.203C320.612 441.203 321.523 442.014 321.523 443.4V461.823C321.523 466.969 317.743 470.293 311.549 470.234ZM311.687 458.855C315.032 458.855 317.248 456.124 317.248 451.85C317.248 447.575 315.032 444.765 311.687 444.765C308.402 444.765 306.265 447.496 306.265 451.83C306.265 456.183 308.402 458.855 311.687 458.855ZM335.167 462.793C328.894 462.793 325.213 458.815 325.213 452.087C325.213 445.477 328.973 441.203 334.87 441.203C340.411 441.203 344.231 445.2 344.231 450.88C344.231 452.265 343.439 453.057 342.113 453.057H329.527V453.156C329.527 456.955 331.664 459.33 335.068 459.33C337.403 459.33 338.868 458.519 340.451 456.362C340.906 455.827 341.341 455.61 341.955 455.61C342.984 455.61 343.736 456.282 343.736 457.351C343.736 457.687 343.617 458.083 343.439 458.499C342.073 461.23 339.046 462.793 335.167 462.793ZM329.547 450.069H339.956C339.857 446.803 337.819 444.646 334.85 444.646C331.902 444.646 329.764 446.823 329.547 450.069ZM350.098 462.773C348.831 462.773 347.96 461.922 347.96 460.517V443.36C347.96 442.054 348.752 441.203 349.999 441.203C351.226 441.203 352.077 442.054 352.077 443.38V445.022H352.176C353.304 442.648 355.48 441.223 358.686 441.223C363.277 441.223 365.909 444.152 365.909 448.921V460.517C365.909 461.922 365.019 462.773 363.752 462.773C362.506 462.773 361.615 461.922 361.615 460.517V449.752C361.615 446.625 360.151 444.904 357.182 444.904C354.174 444.904 352.235 447.041 352.235 450.266V460.517C352.235 461.922 351.344 462.773 350.098 462.773ZM379.356 462.793C373.399 462.793 369.521 458.657 369.521 452.028C369.521 445.438 373.38 441.203 379.316 441.203C383.334 441.203 386.777 443.34 387.687 446.249C387.806 446.586 387.885 446.942 387.885 447.239C387.885 448.327 387.113 449 386.065 449C385.154 449 384.64 448.644 384.125 447.694C383.057 445.715 381.592 444.765 379.396 444.765C376.051 444.765 373.874 447.555 373.874 451.988C373.874 456.52 376.091 459.211 379.396 459.211C381.711 459.211 383.116 458.182 384.125 456.381C384.719 455.352 385.174 454.996 386.104 454.996C387.153 454.996 387.925 455.709 387.925 456.777C387.925 457.114 387.846 457.47 387.687 457.885C386.599 460.755 383.215 462.793 379.356 462.793ZM394.366 470.155C392.387 470.155 391.298 469.423 391.298 468.097C391.298 467.186 391.932 466.593 392.961 466.593C393.416 466.593 393.574 466.613 394.069 466.613C395.256 466.613 396.463 465.959 397.235 463.822L397.631 462.615L390.665 444.389C390.507 443.954 390.428 443.518 390.428 443.182C390.428 442.014 391.358 441.203 392.605 441.203C393.673 441.203 394.287 441.658 394.663 442.845L399.966 458.519H400.026L405.349 442.845C405.705 441.678 406.299 441.203 407.387 441.203C408.614 441.203 409.465 442.014 409.465 443.162C409.465 443.498 409.386 443.934 409.247 444.349L402.024 463.446C400.184 468.453 398.225 470.155 394.366 470.155ZM423.653 438.432C422.288 438.432 421.18 437.324 421.18 435.979C421.18 434.613 422.288 433.544 423.653 433.544C425.039 433.544 426.147 434.613 426.147 435.979C426.147 437.324 425.039 438.432 423.653 438.432ZM423.653 462.773C422.367 462.773 421.516 461.883 421.516 460.517V443.479C421.516 442.093 422.367 441.203 423.653 441.203C424.94 441.203 425.791 442.093 425.791 443.479V460.517C425.791 461.883 424.94 462.773 423.653 462.773ZM432.707 462.773C431.44 462.773 430.569 461.922 430.569 460.517V443.36C430.569 442.054 431.361 441.203 432.608 441.203C433.835 441.203 434.686 442.054 434.686 443.38V445.022H434.785C435.913 442.648 438.089 441.223 441.295 441.223C445.886 441.223 448.518 444.152 448.518 448.921V460.517C448.518 461.922 447.628 462.773 446.361 462.773C445.115 462.773 444.224 461.922 444.224 460.517V449.752C444.224 446.625 442.76 444.904 439.791 444.904C436.783 444.904 434.844 447.041 434.844 450.266V460.517C434.844 461.922 433.953 462.773 432.707 462.773ZM464.428 462.714C463.043 462.714 462.212 461.843 462.212 460.418V435.82C462.212 434.395 463.043 433.525 464.428 433.525C465.794 433.525 466.645 434.395 466.645 435.82V445.913H481.309V435.82C481.309 434.395 482.14 433.525 483.525 433.525C484.891 433.525 485.741 434.395 485.741 435.82V460.418C485.741 461.843 484.891 462.714 483.525 462.714C482.14 462.714 481.309 461.843 481.309 460.418V449.752H466.645V460.418C466.645 461.843 465.794 462.714 464.428 462.714ZM498.08 462.773C493.548 462.773 490.777 459.825 490.777 455.055V443.479C490.777 442.054 491.648 441.203 492.915 441.203C494.161 441.203 495.052 442.054 495.052 443.479V454.224C495.052 457.391 496.556 459.093 499.505 459.093C502.592 459.093 504.452 456.955 504.452 453.71V443.479C504.452 442.054 505.342 441.203 506.589 441.203C507.856 441.203 508.726 442.054 508.726 443.479V460.597C508.726 461.922 507.915 462.773 506.688 462.773C505.461 462.773 504.63 461.922 504.63 460.616V458.875H504.531C503.383 461.368 501.266 462.773 498.08 462.773ZM515.504 462.773C514.218 462.773 513.367 461.883 513.367 460.517V443.38C513.367 442.034 514.198 441.203 515.405 441.203C516.592 441.203 517.443 442.014 517.443 443.38V445.082H517.542C518.472 442.766 520.649 441.223 523.459 441.223C526.349 441.223 528.446 442.707 529.277 445.299H529.376C530.445 442.766 532.899 441.223 535.867 441.223C539.983 441.223 542.675 443.954 542.675 448.09V460.517C542.675 461.883 541.804 462.773 540.518 462.773C539.231 462.773 538.381 461.883 538.381 460.517V449.119C538.381 446.427 536.936 444.884 534.403 444.884C531.87 444.884 530.109 446.764 530.109 449.396V460.517C530.109 461.883 529.297 462.773 528.011 462.773C526.725 462.773 525.913 461.883 525.913 460.517V448.802C525.913 446.408 524.389 444.884 521.975 444.884C519.442 444.884 517.641 446.863 517.641 449.534V460.517C517.641 461.883 516.79 462.773 515.504 462.773ZM553.311 462.754C549.235 462.754 546.365 460.221 546.365 456.48C546.365 452.839 549.175 450.603 554.103 450.326L559.822 449.989V448.386C559.822 446.071 558.259 444.686 555.646 444.686C553.588 444.686 552.223 445.418 551.035 447.318C550.6 447.951 550.046 448.228 549.294 448.228C548.225 448.228 547.454 447.516 547.454 446.447C547.454 446.012 547.572 445.537 547.83 445.062C548.918 442.707 552.065 441.203 555.805 441.203C560.851 441.203 564.077 443.874 564.077 448.05V460.616C564.077 461.962 563.226 462.773 562.019 462.773C560.831 462.773 560.02 462.002 559.98 460.735V458.974H559.881C558.674 461.289 556.022 462.754 553.311 462.754ZM554.479 459.37C557.467 459.37 559.822 457.311 559.822 454.6V452.958L554.677 453.274C552.124 453.453 550.679 454.581 550.679 456.362C550.679 458.182 552.203 459.37 554.479 459.37ZM570.775 462.773C569.508 462.773 568.638 461.922 568.638 460.517V443.36C568.638 442.054 569.429 441.203 570.676 441.203C571.903 441.203 572.754 442.054 572.754 443.38V445.022H572.853C573.981 442.648 576.158 441.223 579.364 441.223C583.955 441.223 586.587 444.152 586.587 448.921V460.517C586.587 461.922 585.696 462.773 584.43 462.773C583.183 462.773 582.292 461.922 582.292 460.517V449.752C582.292 446.625 580.828 444.904 577.86 444.904C574.852 444.904 572.912 447.041 572.912 450.266V460.517C572.912 461.922 572.022 462.773 570.775 462.773ZM591.108 452.78C589.901 452.78 589.011 452.028 589.011 450.821C589.011 449.613 589.901 448.861 591.108 448.861H607.177C608.384 448.861 609.275 449.613 609.275 450.821C609.275 452.028 608.384 452.78 607.177 452.78H591.108ZM613.044 462.714C611.718 462.714 610.828 461.903 610.828 460.695C610.828 460.359 610.907 459.924 611.105 459.389L619.793 435.84C620.366 434.257 621.336 433.525 622.9 433.525C624.443 433.525 625.393 434.237 625.987 435.82L634.694 459.389C634.892 459.943 634.971 460.319 634.971 460.695C634.971 461.863 634.041 462.714 632.755 462.714C631.567 462.714 630.914 462.16 630.518 460.893L628.342 454.739H617.418L615.261 460.874C614.845 462.16 614.192 462.714 613.044 462.714ZM618.546 451.117H627.214L622.919 438.591H622.801L618.546 451.117ZM641.373 462.714C639.987 462.714 639.156 461.843 639.156 460.418V435.82C639.156 434.395 639.987 433.525 641.373 433.525C642.738 433.525 643.589 434.395 643.589 435.82V460.418C643.589 461.843 642.738 462.714 641.373 462.714ZM660.112 462.714C658.727 462.714 657.896 461.843 657.896 460.418V435.82C657.896 434.395 658.727 433.525 660.112 433.525C661.478 433.525 662.329 434.395 662.329 435.82V460.418C662.329 461.843 661.478 462.714 660.112 462.714ZM669.621 462.773C668.354 462.773 667.483 461.922 667.483 460.517V443.36C667.483 442.054 668.275 441.203 669.522 441.203C670.749 441.203 671.6 442.054 671.6 443.38V445.022H671.699C672.827 442.648 675.003 441.223 678.209 441.223C682.801 441.223 685.432 444.152 685.432 448.921V460.517C685.432 461.922 684.542 462.773 683.275 462.773C682.029 462.773 681.138 461.922 681.138 460.517V449.752C681.138 446.625 679.674 444.904 676.705 444.904C673.697 444.904 671.758 447.041 671.758 450.266V460.517C671.758 461.922 670.867 462.773 669.621 462.773ZM691.22 457.41V444.963H689.716C688.608 444.963 687.935 444.33 687.935 443.281C687.935 442.212 688.608 441.579 689.716 441.579H691.22V438.492C691.22 437.126 692.071 436.216 693.378 436.216C694.664 436.216 695.515 437.126 695.515 438.492V441.579H697.949C699.057 441.579 699.73 442.232 699.73 443.281C699.73 444.33 699.057 444.963 697.949 444.963H695.515V456.461C695.515 458.123 696.089 458.875 697.632 458.994L697.969 459.013C699.196 459.132 699.809 459.627 699.809 460.636C699.809 461.922 698.82 462.575 696.722 462.575H696.504C693.002 462.575 691.22 460.854 691.22 457.41ZM711.91 462.793C705.637 462.793 701.956 458.815 701.956 452.087C701.956 445.477 705.716 441.203 711.613 441.203C717.154 441.203 720.973 445.2 720.973 450.88C720.973 452.265 720.182 453.057 718.856 453.057H706.27V453.156C706.27 456.955 708.407 459.33 711.811 459.33C714.146 459.33 715.611 458.519 717.194 456.362C717.649 455.827 718.084 455.61 718.698 455.61C719.727 455.61 720.479 456.282 720.479 457.351C720.479 457.687 720.36 458.083 720.182 458.499C718.816 461.23 715.789 462.793 711.91 462.793ZM706.29 450.069H716.699C716.6 446.803 714.562 444.646 711.593 444.646C708.645 444.646 706.507 446.823 706.29 450.069ZM726.841 462.773C725.554 462.773 724.703 461.903 724.703 460.517V443.36C724.703 442.054 725.535 441.203 726.742 441.203C727.929 441.203 728.76 442.054 728.76 443.36V445.141H728.859C729.433 442.806 731.353 441.242 733.431 441.242C734.183 441.242 734.756 441.421 735.113 441.757C735.508 442.074 735.687 442.588 735.687 443.261C735.687 443.934 735.469 444.429 735.053 444.765C734.618 445.141 733.985 445.319 733.094 445.319C730.165 445.339 728.978 447.298 728.978 449.89V460.517C728.978 461.903 728.107 462.773 726.841 462.773ZM744.067 462.754C739.99 462.754 737.121 460.221 737.121 456.48C737.121 452.839 739.931 450.603 744.858 450.326L750.578 449.989V448.386C750.578 446.071 749.014 444.686 746.402 444.686C744.344 444.686 742.978 445.418 741.791 447.318C741.356 447.951 740.802 448.228 740.05 448.228C738.981 448.228 738.209 447.516 738.209 446.447C738.209 446.012 738.328 445.537 738.585 445.062C739.674 442.707 742.82 441.203 746.56 441.203C751.607 441.203 754.832 443.874 754.832 448.05V460.616C754.832 461.962 753.981 462.773 752.774 462.773C751.587 462.773 750.776 462.002 750.736 460.735V458.974H750.637C749.43 461.289 746.778 462.754 744.067 462.754ZM745.234 459.37C748.223 459.37 750.578 457.311 750.578 454.6V452.958L745.432 453.274C742.88 453.453 741.435 454.581 741.435 456.362C741.435 458.182 742.959 459.37 745.234 459.37ZM768.299 462.793C762.342 462.793 758.463 458.657 758.463 452.028C758.463 445.438 762.322 441.203 768.259 441.203C772.276 441.203 775.72 443.34 776.63 446.249C776.749 446.586 776.828 446.942 776.828 447.239C776.828 448.327 776.056 449 775.007 449C774.097 449 773.582 448.644 773.068 447.694C771.999 445.715 770.535 444.765 768.338 444.765C764.994 444.765 762.817 447.555 762.817 451.988C762.817 456.52 765.033 459.211 768.338 459.211C770.654 459.211 772.059 458.182 773.068 456.381C773.662 455.352 774.117 454.996 775.047 454.996C776.096 454.996 776.868 455.709 776.868 456.777C776.868 457.114 776.788 457.47 776.63 457.885C775.542 460.755 772.158 462.793 768.299 462.793ZM781.983 457.41V444.963H780.479C779.37 444.963 778.698 444.33 778.698 443.281C778.698 442.212 779.37 441.579 780.479 441.579H781.983V438.492C781.983 437.126 782.834 436.216 784.14 436.216C785.426 436.216 786.277 437.126 786.277 438.492V441.579H788.711C789.819 441.579 790.492 442.232 790.492 443.281C790.492 444.33 789.819 444.963 788.711 444.963H786.277V456.461C786.277 458.123 786.851 458.875 788.394 458.994L788.731 459.013C789.958 459.132 790.571 459.627 790.571 460.636C790.571 461.922 789.582 462.575 787.484 462.575H787.266C783.764 462.575 781.983 460.854 781.983 457.41ZM796.438 438.432C795.073 438.432 793.965 437.324 793.965 435.979C793.965 434.613 795.073 433.544 796.438 433.544C797.824 433.544 798.932 434.613 798.932 435.979C798.932 437.324 797.824 438.432 796.438 438.432ZM796.438 462.773C795.152 462.773 794.301 461.883 794.301 460.517V443.479C794.301 442.093 795.152 441.203 796.438 441.203C797.725 441.203 798.576 442.093 798.576 443.479V460.517C798.576 461.883 797.725 462.773 796.438 462.773ZM812.299 462.793C806.343 462.793 802.424 458.697 802.424 451.988C802.424 445.299 806.362 441.203 812.299 441.203C818.236 441.203 822.174 445.299 822.174 451.988C822.174 458.697 818.256 462.793 812.299 462.793ZM812.299 459.271C815.663 459.271 817.82 456.619 817.82 451.988C817.82 447.377 815.644 444.725 812.299 444.725C808.955 444.725 806.778 447.377 806.778 451.988C806.778 456.619 808.955 459.271 812.299 459.271ZM828.022 462.773C826.755 462.773 825.884 461.922 825.884 460.517V443.36C825.884 442.054 826.676 441.203 827.923 441.203C829.15 441.203 830.001 442.054 830.001 443.38V445.022H830.099C831.227 442.648 833.404 441.223 836.61 441.223C841.201 441.223 843.833 444.152 843.833 448.921V460.517C843.833 461.922 842.943 462.773 841.676 462.773C840.43 462.773 839.539 461.922 839.539 460.517V449.752C839.539 446.625 838.075 444.904 835.106 444.904C832.098 444.904 830.159 447.041 830.159 450.266V460.517C830.159 461.922 829.268 462.773 828.022 462.773Z" fill="black" fill-opacity="0.7"/>
</g>
<defs>
<filter id="filter0_d_2246_739" x="877.8" y="215.381" width="555.142" height="555.142" filterUnits="userSpaceOnUse" color-interpolation-filters="sRGB">
<feFlood flood-opacity="0" result="BackgroundImageFix"/>
<feColorMatrix in="SourceAlpha" type="matrix" values="0 0 0 0 0 0 0 0 0 0 0 0 0 0 0 0 0 0 127 0" result="hardAlpha"/>
<feOffset dx="31" dy="24"/>
<feGaussianBlur stdDeviation="38.1"/>
<feComposite in2="hardAlpha" operator="out"/>
<feColorMatrix type="matrix" values="0 0 0 0 0 0 0 0 0 0.0831825 0 0 0 0 0.831825 0 0 0 0.36 0"/>
<feBlend mode="plus-darker" in2="BackgroundImageFix" result="effect1_dropShadow_2246_739"/>
<feBlend mode="normal" in="BackgroundImageFix" in2="effect1_dropShadow_2246_739" result="BackgroundImageFix"/>
<feBlend mode="normal" in="SourceGraphic" in2="BackgroundImageFix" result="shape"/>
</filter>
<filter id="filter1_d_2246_739" x="1050.4" y="340.842" width="556.542" height="556.542" filterUnits="userSpaceOnUse" color-interpolation-filters="sRGB">
<feFlood flood-opacity="0" result="BackgroundImageFix"/>
<feColorMatrix in="SourceAlpha" type="matrix" values="0 0 0 0 0 0 0 0 0 0 0 0 0 0 0 0 0 0 127 0" result="hardAlpha"/>
<feOffset dx="18" dy="15"/>
<feGaussianBlur stdDeviation="38.45"/>
<feComposite in2="hardAlpha" operator="out"/>
<feColorMatrix type="matrix" values="0 0 0 0 0.951322 0 0 0 0 0.276421 0 0 0 0 0.703858 0 0 0 0.3 0"/>
<feBlend mode="plus-darker" in2="BackgroundImageFix" result="effect1_dropShadow_2246_739"/>
<feBlend mode="normal" in="BackgroundImageFix" in2="effect1_dropShadow_2246_739" result="BackgroundImageFix"/>
<feBlend mode="normal" in="SourceGraphic" in2="BackgroundImageFix" result="shape"/>
</filter>
<filter id="filter2_d_2246_739" x="1232.86" y="213.181" width="553.542" height="553.542" filterUnits="userSpaceOnUse" color-interpolation-filters="sRGB">
<feFlood flood-opacity="0" result="BackgroundImageFix"/>
<feColorMatrix in="SourceAlpha" type="matrix" values="0 0 0 0 0 0 0 0 0 0 0 0 0 0 0 0 0 0 127 0" result="hardAlpha"/>
<feOffset dx="9" dy="21"/>
<feGaussianBlur stdDeviation="37.7"/>
<feComposite in2="hardAlpha" operator="out"/>
<feColorMatrix type="matrix" values="0 0 0 0 0.850023 0 0 0 0 0.722519 0 0 0 0 0 0 0 0 0.38 0"/>
<feBlend mode="plus-darker" in2="BackgroundImageFix" result="effect1_dropShadow_2246_739"/>
<feBlend mode="normal" in="BackgroundImageFix" in2="effect1_dropShadow_2246_739" result="BackgroundImageFix"/>
<feBlend mode="normal" in="SourceGraphic" in2="BackgroundImageFix" result="shape"/>
</filter>
<filter id="filter3_d_2246_739" x="1166.93" y="2.9974" width="497.542" height="497.542" filterUnits="userSpaceOnUse" color-interpolation-filters="sRGB">
<feFlood flood-opacity="0" result="BackgroundImageFix"/>
<feColorMatrix in="SourceAlpha" type="matrix" values="0 0 0 0 0 0 0 0 0 0 0 0 0 0 0 0 0 0 127 0" result="hardAlpha"/>
<feOffset dx="4.56624" dy="23"/>
<feGaussianBlur stdDeviation="23.7"/>
<feComposite in2="hardAlpha" operator="out"/>
<feColorMatrix type="matrix" values="0 0 0 0 0.186846 0 0 0 0 0.934232 0 0 0 0 0 0 0 0 0.19 0"/>
<feBlend mode="plus-darker" in2="BackgroundImageFix" result="effect1_dropShadow_2246_739"/>
<feBlend mode="normal" in="BackgroundImageFix" in2="effect1_dropShadow_2246_739" result="BackgroundImageFix"/>
<feBlend mode="normal" in="SourceGraphic" in2="BackgroundImageFix" result="shape"/>
</filter>
<filter id="filter4_d_2246_739" x="976.882" y="-2.00272e-05" width="484.934" height="484.934" filterUnits="userSpaceOnUse" color-interpolation-filters="sRGB">
<feFlood flood-opacity="0" result="BackgroundImageFix"/>
<feColorMatrix in="SourceAlpha" type="matrix" values="0 0 0 0 0 0 0 0 0 0 0 0 0 0 0 0 0 0 127 0" result="hardAlpha"/>
<feOffset dx="4.56624" dy="13.6987"/>
<feGaussianBlur stdDeviation="20.5481"/>
<feComposite in2="hardAlpha" operator="out"/>
<feColorMatrix type="matrix" values="0 0 0 0 0.120624 0 0 0 0 0.809468 0 0 0 0 1 0 0 0 0.35 0"/>
<feBlend mode="plus-darker" in2="BackgroundImageFix" result="effect1_dropShadow_2246_739"/>
<feBlend mode="normal" in="BackgroundImageFix" in2="effect1_dropShadow_2246_739" result="BackgroundImageFix"/>
<feBlend mode="normal" in="SourceGraphic" in2="BackgroundImageFix" result="shape"/>
</filter>
<filter id="filter5_d_2246_739" x="1164.06" y="265.979" width="309.009" height="308.443" filterUnits="userSpaceOnUse" color-interpolation-filters="sRGB">
<feFlood flood-opacity="0" result="BackgroundImageFix"/>
<feColorMatrix in="SourceAlpha" type="matrix" values="0 0 0 0 0 0 0 0 0 0 0 0 0 0 0 0 0 0 127 0" result="hardAlpha"/>
<feOffset dx="5.7855" dy="12.5352"/>
<feGaussianBlur stdDeviation="50.6438"/>
<feComposite in2="hardAlpha" operator="out"/>
<feColorMatrix type="matrix" values="0 0 0 0 0 0 0 0 0 0 0 0 0 0 0 0 0 0 0.5 0"/>
<feBlend mode="hard-light" in2="BackgroundImageFix" result="effect1_dropShadow_2246_739"/>
<feBlend mode="normal" in="SourceGraphic" in2="effect1_dropShadow_2246_739" result="shape"/>
</filter>
<radialGradient id="paint0_radial_2246_739" cx="0" cy="0" r="1" gradientUnits="userSpaceOnUse" gradientTransform="translate(1484.19 329.226) rotate(67.1663) scale(404.782)">
<stop stop-color="#9900D6"/>
<stop offset="0.8" stop-color="#497DEC" stop-opacity="0.39"/>
</radialGradient>
<radialGradient id="paint1_radial_2246_739" cx="0" cy="0" r="1" gradientTransform="matrix(2.61854e-05 368.495 -368.797 0.88795 1311.13 479.912)" gradientUnits="userSpaceOnUse">
<stop offset="0.206731" stop-color="#FF5242" stop-opacity="0.94"/>
<stop offset="0.951923" stop-color="#FF65D9" stop-opacity="0.23"/>
</radialGradient>
<radialGradient id="paint2_radial_2246_739" cx="0" cy="0" r="1" gradientTransform="matrix(191.5 -362 365.868 193.541 1861.36 609.081)" gradientUnits="userSpaceOnUse">
<stop offset="0.0961538" stop-color="#FF8528"/>
<stop offset="0.783654" stop-color="#FFC800" stop-opacity="0.41"/>
</radialGradient>
<radialGradient id="paint3_radial_2246_739" cx="0" cy="0" r="1" gradientTransform="matrix(-331.509 -194.065 196.078 -331.3 1991.04 312.331)" gradientUnits="userSpaceOnUse">
<stop offset="0.136304" stop-color="#31E868"/>
<stop offset="1" stop-color="#EEFF80" stop-opacity="0.67"/>
</radialGradient>
<radialGradient id="paint4_radial_2246_739" cx="0" cy="0" r="1" gradientUnits="userSpaceOnUse" gradientTransform="translate(1299.71 385.847) rotate(-120.532) scale(416.153)">
<stop offset="0.0336538" stop-color="#007AFF"/>
<stop offset="0.982292" stop-color="#77FFDB" stop-opacity="0.42"/>
</radialGradient>
<radialGradient id="paint5_radial_2246_739" cx="0" cy="0" r="1" gradientUnits="userSpaceOnUse" gradientTransform="translate(1312.78 407.666) rotate(90) scale(52.9337 53.2167)">
<stop offset="0.591346" stop-color="white"/>
<stop offset="1" stop-color="#D7D7D7"/>
</radialGradient>
</defs>
</svg>
