<svg width="825" height="179" viewBox="0 0 825 179" fill="none" xmlns="http://www.w3.org/2000/svg">
<path d="M199.067 105.994C196.646 105.994 195.192 104.511 195.192 101.938V68.3945H185.202C183.083 68.3945 181.63 67.123 181.63 65.0947C181.63 63.0664 183.053 61.7949 185.202 61.7949H212.963C215.112 61.7949 216.535 63.0664 216.535 65.0947C216.535 67.123 215.082 68.3945 212.963 68.3945H202.973V101.938C202.973 104.511 201.52 105.994 199.067 105.994ZM223.998 106.085C221.788 106.085 220.214 104.662 220.214 102.119V65.0645C220.214 62.6729 221.637 61.1895 223.938 61.1895C226.269 61.1895 227.661 62.6729 227.661 65.0645V78.8994H227.813C229.538 74.9941 233.08 72.7842 237.954 72.7842C245.038 72.7842 249.186 77.4463 249.186 84.8027V102.119C249.186 104.662 247.611 106.085 245.402 106.085C243.192 106.085 241.648 104.662 241.648 102.119V86.3467C241.648 81.8662 239.407 79.1719 235.048 79.1719C230.507 79.1719 227.752 82.3203 227.752 87.043V102.119C227.752 104.662 226.208 106.085 223.998 106.085ZM268.879 106.115C259.071 106.115 253.288 99.9697 253.288 89.5557C253.288 79.3232 259.192 72.7236 268.455 72.7236C277.235 72.7236 283.229 78.96 283.229 87.6787C283.229 89.9189 281.957 91.251 279.717 91.251H260.796V91.4932C260.796 96.8516 263.914 100.303 268.819 100.303C272.209 100.303 274.419 99.1221 276.841 96.0342C277.628 95.1562 278.324 94.8232 279.384 94.8232C281.079 94.8232 282.411 95.9131 282.411 97.7295C282.411 98.3047 282.23 98.9707 281.897 99.6367C279.778 103.724 274.994 106.115 268.879 106.115ZM260.857 86.2861H275.842C275.691 81.624 272.724 78.5664 268.486 78.5664C264.247 78.5664 261.159 81.6846 260.857 86.2861ZM303.271 106.085C301.061 106.085 299.487 104.662 299.487 102.119V65.0645C299.487 62.6729 300.91 61.1895 303.21 61.1895C305.542 61.1895 306.934 62.6729 306.934 65.0645V78.8994H307.085C308.811 74.9941 312.353 72.7842 317.227 72.7842C324.311 72.7842 328.459 77.4463 328.459 84.8027V102.119C328.459 104.662 326.884 106.085 324.674 106.085C322.464 106.085 320.92 104.662 320.92 102.119V86.3467C320.92 81.8662 318.68 79.1719 314.321 79.1719C309.78 79.1719 307.025 82.3203 307.025 87.043V102.119C307.025 104.662 305.481 106.085 303.271 106.085ZM345.125 106.055C338.162 106.055 333.742 101.544 333.742 94.127V76.7197C333.742 74.207 335.286 72.7539 337.496 72.7539C339.706 72.7539 341.28 74.207 341.28 76.75V92.6133C341.28 97.2148 343.52 99.6973 347.758 99.6973C352.118 99.6973 354.812 96.6094 354.812 91.9473V76.7197C354.812 74.207 356.386 72.7539 358.596 72.7539C360.776 72.7539 362.35 74.207 362.35 76.75V102.271C362.35 104.692 360.897 106.085 358.748 106.085C356.568 106.085 355.085 104.692 355.085 102.271V99.9092H354.933C353.238 103.814 349.999 106.055 345.125 106.055ZM371.66 106.085C369.389 106.085 367.906 104.632 367.906 102.119V76.5986C367.906 74.1465 369.389 72.7539 371.509 72.7539C373.628 72.7539 375.141 74.1465 375.141 76.5986V78.96H375.293C376.685 75.2363 380.076 72.7842 384.435 72.7842C388.976 72.7842 392.216 75.1152 393.396 79.2324H393.578C395.122 75.2666 398.936 72.7842 403.568 72.7842C409.895 72.7842 414.043 77.0527 414.043 83.4707V102.119C414.043 104.632 412.529 106.085 410.289 106.085C408.018 106.085 406.505 104.632 406.505 102.119V85.3174C406.505 81.3818 404.446 79.1416 400.753 79.1416C397.12 79.1416 394.637 81.8057 394.637 85.6504V102.119C394.637 104.632 393.215 106.085 390.974 106.085C388.704 106.085 387.311 104.632 387.311 102.119V84.9238C387.311 81.3516 385.132 79.1416 381.62 79.1416C377.987 79.1416 375.444 81.957 375.444 85.832V102.119C375.444 104.632 373.9 106.085 371.66 106.085ZM428.892 105.994C422.686 105.994 418.176 102.089 418.176 96.3066C418.176 90.6152 422.565 87.1943 430.376 86.71L438.883 86.2256V83.9248C438.883 80.5645 436.612 78.627 432.889 78.627C429.952 78.627 428.045 79.626 426.168 82.3809C425.381 83.4102 424.382 83.8945 423.11 83.8945C421.264 83.8945 419.932 82.6836 419.932 80.8672C419.932 80.1709 420.113 79.5049 420.446 78.8086C422.081 75.085 427.046 72.7236 433.191 72.7236C441.153 72.7236 446.33 76.9316 446.33 83.3799V102.301C446.33 104.723 444.786 106.085 442.667 106.085C440.608 106.085 439.185 104.844 439.064 102.604V100.363H438.913C437.066 103.845 433.04 105.994 428.892 105.994ZM431.193 100.303C435.432 100.303 438.883 97.457 438.883 93.582V91.1299L431.435 91.584C427.803 91.8262 425.714 93.4609 425.714 96.0039C425.714 98.6377 427.924 100.303 431.193 100.303ZM455.549 106.085C453.339 106.085 451.795 104.662 451.795 102.119V76.5684C451.795 74.2373 453.157 72.7539 455.397 72.7539C457.607 72.7539 459.121 74.2373 459.121 76.5684V78.8086H459.272C460.998 74.9941 464.328 72.7842 469.263 72.7842C476.347 72.7842 480.373 77.3252 480.373 84.7422V102.119C480.373 104.662 478.829 106.085 476.619 106.085C474.409 106.085 472.835 104.662 472.835 102.119V86.2559C472.835 81.7148 470.716 79.1719 466.417 79.1719C462.088 79.1719 459.333 82.29 459.333 86.8916V102.119C459.333 104.662 457.759 106.085 455.549 106.085ZM509.982 106.115C503.2 106.115 498.448 103.512 496.904 99.667C496.692 99.1221 496.601 98.6377 496.601 98.1836C496.601 96.3672 497.933 95.2168 499.749 95.2168C500.99 95.2168 502.05 95.792 503.019 97.0635C504.714 99.5156 506.652 100.605 510.254 100.605C513.766 100.605 516.097 99.1221 516.097 96.7002C516.097 94.7627 514.886 93.7031 511.586 92.9463L506.379 91.7656C500.113 90.3428 497.025 87.2549 497.025 82.5928C497.025 76.6289 502.171 72.7236 510.103 72.7236C516.279 72.7236 521.062 75.751 522.061 79.4443C522.152 79.8379 522.212 80.2012 522.212 80.5645C522.212 82.1387 521.213 83.2588 519.306 83.2588C518.216 83.2588 517.126 82.8652 516.43 81.8662C514.947 79.6562 513.1 78.2637 509.921 78.2637C506.621 78.2637 504.351 79.8682 504.351 82.1689C504.351 84.0459 505.743 85.3174 509.073 86.0742L514.19 87.1943C520.971 88.7383 523.665 91.1904 523.665 95.9434C523.665 102.089 518.156 106.115 509.982 106.115ZM531.552 116.893C529.342 116.893 527.798 115.47 527.798 112.927V76.6289C527.798 74.1465 529.312 72.7539 531.461 72.7539C533.611 72.7539 535.155 74.1465 535.155 76.6289V78.9297H535.306C537.122 75.2061 540.755 72.8447 545.417 72.8447C553.561 72.8447 558.738 79.1719 558.738 89.4346C558.738 99.667 553.591 105.994 545.538 105.994C540.876 105.994 537.244 103.754 535.488 100.151H535.336V112.927C535.336 115.47 533.762 116.893 531.552 116.893ZM543.117 99.8184C547.991 99.8184 551.018 95.792 551.018 89.4346C551.018 83.1074 547.991 79.0508 543.117 79.0508C538.424 79.0508 535.306 83.1982 535.276 89.4346C535.306 95.7314 538.424 99.8184 543.117 99.8184ZM566.897 68.8789C564.566 68.8789 562.719 67.0625 562.719 64.792C562.719 62.4912 564.566 60.7051 566.897 60.7051C569.258 60.7051 571.105 62.4912 571.105 64.792C571.105 67.0625 569.258 68.8789 566.897 68.8789ZM566.897 106.085C564.596 106.085 563.143 104.571 563.143 102.119V76.7197C563.143 74.2979 564.596 72.7539 566.897 72.7539C569.198 72.7539 570.681 74.2979 570.681 76.75V102.119C570.681 104.571 569.198 106.085 566.897 106.085ZM580.142 106.085C577.872 106.085 576.388 104.602 576.388 102.119V76.5684C576.388 74.207 577.841 72.7539 579.991 72.7539C582.08 72.7539 583.563 74.207 583.563 76.5684V79.0205H583.714C584.592 75.2666 587.378 72.8447 590.587 72.8447C591.767 72.8447 592.675 73.1475 593.251 73.6621C593.947 74.2373 594.31 75.1455 594.31 76.3867C594.31 77.5674 593.947 78.4453 593.19 79.0508C592.464 79.6865 591.343 80.0195 589.86 80.0498C585.561 80.0801 583.926 82.7744 583.926 86.6797V102.119C583.926 104.602 582.413 106.085 580.142 106.085ZM601.016 68.8789C598.685 68.8789 596.839 67.0625 596.839 64.792C596.839 62.4912 598.685 60.7051 601.016 60.7051C603.378 60.7051 605.224 62.4912 605.224 64.792C605.224 67.0625 603.378 68.8789 601.016 68.8789ZM601.016 106.085C598.716 106.085 597.262 104.571 597.262 102.119V76.7197C597.262 74.2979 598.716 72.7539 601.016 72.7539C603.317 72.7539 604.801 74.2979 604.801 76.75V102.119C604.801 104.571 603.317 106.085 601.016 106.085ZM612.597 97.5479V79.2021H610.568C608.691 79.2021 607.541 78.082 607.541 76.2656C607.541 74.4795 608.691 73.3896 610.568 73.3896H612.597V69.1211C612.597 66.6992 614.05 65.1855 616.381 65.1855C618.682 65.1855 620.135 66.6992 620.135 69.1211V73.3896H623.616C625.493 73.3896 626.643 74.4795 626.643 76.2656C626.643 78.082 625.493 79.2021 623.616 79.2021H620.135V95.9131C620.135 98.335 620.982 99.3945 623.162 99.5762L623.707 99.6367C625.705 99.8184 626.734 100.666 626.734 102.422C626.734 104.632 624.797 105.812 621.346 105.812H621.043C615.442 105.812 612.597 103.027 612.597 97.5479ZM635.983 105.812C633.531 105.812 631.624 103.905 631.624 101.453C631.624 99.0312 633.531 97.0938 635.983 97.0938C638.405 97.0938 640.312 99.0312 640.312 101.453C640.312 103.905 638.405 105.812 635.983 105.812ZM296.497 168.206C284.115 168.206 276.365 159.518 276.365 145.652C276.365 131.787 284.115 123.068 296.497 123.068C308.879 123.068 316.629 131.787 316.629 145.652C316.629 159.518 308.879 168.206 296.497 168.206ZM296.497 163.181C305.428 163.181 311.028 156.399 311.028 145.652C311.028 134.875 305.428 128.094 296.497 128.094C287.566 128.094 281.966 134.875 281.966 145.652C281.966 156.399 287.566 163.181 296.497 163.181ZM324.607 178.59C323.063 178.59 321.973 177.439 321.973 175.774V138.114C321.973 136.54 323.002 135.45 324.485 135.45C325.939 135.45 326.968 136.54 326.968 138.114V141.323H327.089C329.026 137.781 332.69 135.45 337.261 135.45C345.283 135.45 350.732 141.868 350.732 151.737C350.732 161.606 345.314 168.024 337.382 168.024C332.871 168.024 329.238 165.814 327.361 162.363H327.24V175.774C327.24 177.439 326.15 178.59 324.607 178.59ZM336.232 163.393C341.832 163.393 345.344 158.882 345.344 151.737C345.344 144.623 341.832 140.082 336.232 140.082C330.843 140.082 327.21 144.744 327.21 151.737C327.21 158.761 330.843 163.393 336.232 163.393ZM357.136 160.214V140.324H354.502C352.988 140.324 352.141 139.537 352.141 138.145C352.141 136.782 352.988 135.995 354.502 135.995H357.136V130.606C357.136 128.941 358.226 127.791 359.77 127.791C361.314 127.791 362.404 128.941 362.404 130.606V135.995H366.46C367.974 135.995 368.821 136.782 368.821 138.145C368.821 139.537 367.974 140.324 366.46 140.324H362.404V159.063C362.404 161.728 363.342 162.999 365.976 163.181L366.43 163.211C368.155 163.332 368.943 164.028 368.943 165.27C368.943 166.874 368.034 167.722 365.098 167.722H364.765C359.679 167.722 357.136 165.239 357.136 160.214ZM376.436 130.697C374.65 130.697 373.166 129.214 373.166 127.428C373.166 125.611 374.65 124.158 376.436 124.158C378.252 124.158 379.736 125.611 379.736 127.428C379.736 129.214 378.252 130.697 376.436 130.697ZM376.436 168.024C374.892 168.024 373.802 166.874 373.802 165.209V138.266C373.802 136.601 374.892 135.45 376.436 135.45C377.98 135.45 379.07 136.601 379.07 138.266V165.209C379.07 166.874 377.98 168.024 376.436 168.024ZM388.198 168.024C386.593 168.024 385.564 166.813 385.564 165.209V138.114C385.564 136.54 386.593 135.45 388.046 135.45C389.499 135.45 390.529 136.54 390.529 138.114V141.021H390.65C392.133 137.69 395.342 135.45 399.58 135.45C403.879 135.45 407.058 137.63 408.42 141.444H408.541C410.297 137.69 413.991 135.45 418.411 135.45C424.647 135.45 428.673 139.507 428.673 145.743V165.209C428.673 166.813 427.644 168.024 426.039 168.024C424.435 168.024 423.406 166.813 423.406 165.209V146.954C423.406 142.655 421.014 140.112 416.867 140.112C412.689 140.112 409.752 143.2 409.752 147.469V165.209C409.752 166.813 408.723 168.024 407.119 168.024C405.514 168.024 404.485 166.813 404.485 165.209V146.379C404.485 142.595 401.942 140.112 398.037 140.112C393.859 140.112 390.831 143.382 390.831 147.741V165.209C390.831 166.813 389.802 168.024 388.198 168.024ZM437.68 130.697C435.894 130.697 434.411 129.214 434.411 127.428C434.411 125.611 435.894 124.158 437.68 124.158C439.497 124.158 440.98 125.611 440.98 127.428C440.98 129.214 439.497 130.697 437.68 130.697ZM437.68 168.024C436.136 168.024 435.046 166.874 435.046 165.209V138.266C435.046 136.601 436.136 135.45 437.68 135.45C439.224 135.45 440.314 136.601 440.314 138.266V165.209C440.314 166.874 439.224 168.024 437.68 168.024ZM448.927 167.479C447.232 167.479 446.112 166.45 446.112 164.876C446.112 163.968 446.324 163.423 446.99 162.545L463.58 140.415V140.324H448.231C446.717 140.324 445.87 139.537 445.87 138.145C445.87 136.782 446.717 135.995 448.231 135.995H466.456C468.454 135.995 469.604 136.994 469.604 138.689C469.604 139.598 469.271 140.294 468.363 141.505L452.227 163.06V163.15H467.606C469.12 163.15 469.967 163.938 469.967 165.3C469.967 166.692 469.12 167.479 467.606 167.479H448.927ZM487.178 168.024C477.885 168.024 472.435 162.03 472.435 151.858C472.435 141.929 478.036 135.45 486.724 135.45C494.777 135.45 500.438 141.475 500.438 150.103C500.438 152.01 499.348 153.16 497.532 153.16H477.854C477.854 159.518 481.336 163.453 486.967 163.453C490.72 163.453 493.021 162.121 495.473 158.549C496.018 157.792 496.624 157.489 497.441 157.489C498.834 157.489 499.772 158.397 499.772 159.79C499.772 160.214 499.621 160.759 499.379 161.334C497.35 165.603 492.93 168.024 487.178 168.024ZM477.885 149.043H494.989C494.868 143.594 491.508 140.021 486.634 140.021C481.729 140.021 478.218 143.624 477.885 149.043ZM517.074 168.024C509.052 168.024 503.602 161.606 503.602 151.737C503.602 141.868 509.021 135.45 516.953 135.45C521.464 135.45 525.097 137.66 526.974 141.111H527.095V126.065C527.095 124.4 528.184 123.25 529.728 123.25C531.272 123.25 532.362 124.4 532.362 126.065V165.451C532.362 166.965 531.303 168.024 529.789 168.024C528.306 168.024 527.095 166.995 527.095 165.451V161.849H527.004C525.278 165.603 522.009 168.024 517.074 168.024ZM518.073 163.393C523.492 163.393 527.125 158.791 527.125 151.737C527.125 144.714 523.492 140.082 518.073 140.082C512.503 140.082 508.991 144.623 508.991 151.737C508.991 158.882 512.503 163.393 518.073 163.393ZM543.307 167.782C541.369 167.782 539.855 166.269 539.855 164.331C539.855 162.394 541.369 160.88 543.307 160.88C545.244 160.88 546.758 162.394 546.758 164.331C546.758 166.269 545.244 167.782 543.307 167.782Z" fill="white"/>
<path d="M382.276 32C381.077 32 380.358 31.2462 380.358 30.0126V8.99092C380.358 7.75738 381.077 7.00354 382.276 7.00354C383.459 7.00354 384.195 7.75738 384.195 8.99092V28.6763H394.201C395.263 28.6763 395.982 29.3273 395.982 30.3381C395.982 31.349 395.263 32 394.201 32H382.276ZM401.224 11.2524C400.042 11.2524 399.083 10.293 399.083 9.12798C399.083 7.94583 400.042 7.02067 401.224 7.02067C402.424 7.02067 403.383 7.94583 403.383 9.12798C403.383 10.293 402.424 11.2524 401.224 11.2524ZM401.224 32.3255C400.111 32.3255 399.374 31.5546 399.374 30.3724V15.6212C399.374 14.422 400.111 13.651 401.224 13.651C402.338 13.651 403.075 14.422 403.075 15.6212V30.3724C403.075 31.5546 402.338 32.3255 401.224 32.3255ZM410.51 32.3255C409.379 32.3255 408.642 31.6231 408.642 30.3895V16.9062H407.357C406.483 16.9062 405.884 16.3922 405.884 15.467C405.884 14.5761 406.483 14.0108 407.357 14.0108H408.642V12.2461C408.642 8.75107 410.338 7.12347 413.439 7.10634C415.409 7.10634 416.352 7.74024 416.352 8.73393C416.352 9.33357 416.061 9.69336 415.461 9.86468C415.204 9.93322 414.895 9.98461 414.519 9.98461C412.96 10.0017 412.308 10.7384 412.308 12.3832V14.0108H414.741C415.615 14.0108 416.215 14.5761 416.215 15.467C416.215 16.3922 415.615 16.9062 414.741 16.9062H412.36V30.3895C412.36 31.6231 411.623 32.3255 410.51 32.3255ZM426.631 32.3427C421.2 32.3427 418.013 28.899 418.013 23.0739C418.013 17.3516 421.268 13.651 426.374 13.651C431.171 13.651 434.477 17.1118 434.477 22.0288C434.477 23.2281 433.792 23.9134 432.644 23.9134H421.748V23.9991C421.748 27.2885 423.598 29.3444 426.545 29.3444C428.567 29.3444 429.834 28.642 431.205 26.7746C431.599 26.312 431.976 26.1235 432.507 26.1235C433.398 26.1235 434.049 26.706 434.049 27.6312C434.049 27.9224 433.946 28.2651 433.792 28.6249C432.61 30.9892 429.989 32.3427 426.631 32.3427ZM421.765 21.3264H430.777C430.691 18.4995 428.926 16.6321 426.357 16.6321C423.804 16.6321 421.953 18.5166 421.765 21.3264ZM448.765 32.394C441.878 32.394 437.543 27.477 437.543 19.6474C437.543 11.8178 441.878 6.88361 448.765 6.88361C455.653 6.88361 460.004 11.8178 460.004 19.6474C460.004 27.477 455.67 32.394 448.765 32.394ZM448.765 30.2182C454.179 30.2182 457.606 26.1235 457.606 19.6474C457.606 13.1541 454.179 9.05945 448.765 9.05945C443.351 9.05945 439.942 13.1541 439.942 19.6474C439.942 26.1235 443.351 30.2182 448.765 30.2182ZM472.305 32.394C467.645 32.394 464.321 30.1839 463.481 27.0658C463.379 26.7403 463.327 26.4319 463.327 26.1235C463.327 25.3697 463.738 24.89 464.407 24.89C465.006 24.89 465.383 25.1984 465.537 25.8494C466.171 28.6934 468.878 30.2696 472.425 30.2696C476.142 30.2696 478.781 28.2994 478.781 25.4896C478.781 23.1596 477.239 21.7547 473.436 20.8809L470.746 20.2813C465.846 19.1848 463.79 17.0775 463.79 13.6681C463.79 9.67623 467.388 6.88361 472.236 6.88361C476.331 6.88361 479.655 8.97379 480.494 12.229C480.546 12.4346 480.563 12.6744 480.563 12.9657C480.563 13.6167 480.134 14.045 479.5 14.045C478.884 14.045 478.524 13.7195 478.335 13.1027C477.633 10.4643 475.269 9.00805 472.168 9.00805C468.827 9.00805 466.188 10.7556 466.188 13.5653C466.188 15.8097 467.713 17.2317 471.38 18.0541L474.069 18.6708C479.141 19.8187 481.179 21.7376 481.179 25.1812C481.179 29.5672 477.65 32.394 472.305 32.394Z" fill="white"/>
<rect x="334.498" y="36.6948" width="20.0202" height="20.0202" rx="10.0101" transform="rotate(-120 334.498 36.6948)" stroke="url(#paint0_linear_552_1098)" stroke-width="2.21398"/>
<rect x="358.66" y="36.0748" width="20.0202" height="20.0202" rx="10.0101" transform="rotate(165 358.66 36.0748)" stroke="url(#paint1_linear_552_1098)" stroke-width="2.21398"/>
<rect x="328.486" y="8.73739" width="20.0202" height="20.0202" rx="10.0101" transform="rotate(-30 328.486 8.73739)" stroke="url(#paint2_linear_552_1098)" stroke-width="2.21398"/>
<rect x="368.471" y="19.3565" width="20.0202" height="20.0202" rx="10.0101" transform="rotate(120 368.471 19.3565)" stroke="url(#paint3_linear_552_1098)" stroke-width="2.21398"/>
<rect x="347.176" y="-1.27096" width="20.0202" height="20.0202" rx="10.0101" transform="rotate(30 347.176 -1.27096)" stroke="url(#paint4_linear_552_1098)" stroke-width="2.21398"/>
<ellipse cx="346.493" cy="20.3098" rx="3.74472" ry="3.72481" fill="url(#paint5_radial_552_1098)"/>
<defs>
<linearGradient id="paint0_linear_552_1098" x1="343.806" y1="35.1826" x2="343.806" y2="52.9889" gradientUnits="userSpaceOnUse">
<stop offset="0.413462" stop-color="white"/>
<stop offset="0.850962" stop-color="white" stop-opacity="0"/>
</linearGradient>
<linearGradient id="paint1_linear_552_1098" x1="366.207" y1="35.292" x2="366.207" y2="53.0982" gradientUnits="userSpaceOnUse">
<stop offset="0.413462" stop-color="white"/>
<stop offset="0.850962" stop-color="white" stop-opacity="0"/>
</linearGradient>
<linearGradient id="paint2_linear_552_1098" x1="338.901" y1="9.14258" x2="338.901" y2="26.9488" gradientUnits="userSpaceOnUse">
<stop offset="0.413462" stop-color="white"/>
<stop offset="0.850962" stop-color="white" stop-opacity="0"/>
</linearGradient>
<linearGradient id="paint3_linear_552_1098" x1="375.862" y1="19.7617" x2="375.862" y2="37.568" gradientUnits="userSpaceOnUse">
<stop offset="0.413462" stop-color="white"/>
<stop offset="0.850962" stop-color="white" stop-opacity="0"/>
</linearGradient>
<linearGradient id="paint4_linear_552_1098" x1="356.485" y1="0.241211" x2="356.485" y2="18.0474" gradientUnits="userSpaceOnUse">
<stop offset="0.413462" stop-color="white"/>
<stop offset="0.850962" stop-color="white" stop-opacity="0"/>
</linearGradient>
<radialGradient id="paint5_radial_552_1098" cx="0" cy="0" r="1" gradientUnits="userSpaceOnUse" gradientTransform="translate(346.493 20.3098) rotate(90) scale(3.7255 3.74542)">
<stop offset="0.3125" stop-color="white"/>
<stop offset="1" stop-color="#D5D5D5"/>
</radialGradient>
</defs>
</svg>
