<?xml version="1.0" encoding="UTF-8"?>
<svg id="Layer_1" data-name="Layer 1" xmlns="http://www.w3.org/2000/svg" version="1.1" viewBox="0 0 90.5 89.5">
  <defs>
    <style>
      .cls-1 {
        fill: #000;
        stroke-width: 0px;
      }
    </style>
  </defs>
  <path class="cls-1" d="M34.8,10c-2,4.7-3,9.8-3,15,0,21.6,17.5,39.1,39.1,39.1s4.1-.2,6.2-.5c-6.5,10.7-18.2,17.6-31.2,17.6-20.1,0-36.5-16.4-36.5-36.5s3.7-18.7,10.5-25.6c4.2-4.3,9.3-7.4,14.9-9.2M45.2,3C22.5,3.4,4.2,21.9,4.2,44.7s18.7,41.7,41.7,41.7,35.8-13.3,40.4-31.4c-4.6,2.4-9.8,3.7-15.4,3.7-18.7,0-33.8-15.1-33.8-33.8s3-16,8.1-21.9h0Z"/>
</svg>