<?xml version="1.0" encoding="UTF-8"?>
<svg id="Layer_1" data-name="Layer 1" xmlns="http://www.w3.org/2000/svg" version="1.1" viewBox="0 0 100 100">
  <defs>
    <style>
      .cls-1 {
        fill: #000;
        stroke-width: 0px;
      }
    </style>
  </defs>
  <path class="cls-1" d="M50,96.7c-20.3,0-38-14.4-42.1-34.3-.4-2.2,1-4.3,3.1-4.7,2.2-.4,4.3,1,4.7,3.1,3.3,16.2,17.7,27.9,34.2,27.9s35-15.7,35-35-15.7-35-35-35-14.9,2.4-21,7c-1.8,1.3-4.3,1-5.6-.8-1.3-1.8-1-4.3.8-5.6,7.5-5.6,16.4-8.6,25.8-8.6,23.7,0,43,19.3,43,43s-19.3,43-43,43Z"/>
  <path class="cls-1" d="M42.6,44.4H11c-1.1,0-2.1-.4-2.8-1.2-.8-.8-1.2-1.8-1.2-2.9l.4-32.8c0-2.2,1.8-4,4-4s0,0,0,0c2.2,0,4,1.8,4,4l-.3,28.7h27.5c2.2,0,4,1.8,4,4s-1.8,4-4,4Z"/>
</svg>