<?xml version="1.0" encoding="UTF-8"?>
<svg id="Layer_1" data-name="Layer 1" xmlns="http://www.w3.org/2000/svg" version="1.1" viewBox="0 0 121.9 121.1">
  <defs>
    <style>
      .cls-1 {
        stroke-width: 6.6px;
      }

      .cls-1, .cls-2, .cls-3 {
        fill: none;
        stroke: #fff;
        stroke-miterlimit: 10;
      }

      .cls-1, .cls-3 {
        stroke-linecap: round;
      }

      .cls-2, .cls-3 {
        stroke-width: 5px;
      }

      .cls-4 {
        fill: #fff;
        stroke-width: 0px;
      }
    </style>
  </defs>
  <circle class="cls-4" cx="-531.3" cy="-278.9" r="23.3"/>
  <g>
    <g>
      <line class="cls-1" x1="-531.3" y1="-311.8" x2="-531.3" y2="-339.9"/>
      <line class="cls-1" x1="-531.3" y1="-218" x2="-531.3" y2="-246.1"/>
      <line class="cls-1" x1="-498.4" y1="-278.9" x2="-470.4" y2="-278.9"/>
      <line class="cls-1" x1="-592.2" y1="-278.9" x2="-564.2" y2="-278.9"/>
    </g>
    <g>
      <line class="cls-1" x1="-508" y1="-302.2" x2="-488.2" y2="-322"/>
      <line class="cls-1" x1="-574.4" y1="-235.9" x2="-554.5" y2="-255.7"/>
      <line class="cls-1" x1="-508" y1="-255.7" x2="-488.2" y2="-235.9"/>
      <line class="cls-1" x1="-574.4" y1="-322" x2="-554.5" y2="-302.2"/>
    </g>
  </g>
  <g>
    <circle class="cls-2" cx="60.9" cy="60.6" r="30.4"/>
    <g>
      <g>
        <line class="cls-3" x1="60.9" y1="17.6" x2="60.9" y2="4.3"/>
        <line class="cls-3" x1="60.9" y1="116.8" x2="60.9" y2="103.5"/>
        <line class="cls-3" x1="103.9" y1="60.6" x2="117.2" y2="60.6"/>
        <line class="cls-3" x1="4.7" y1="60.6" x2="18" y2="60.6"/>
      </g>
      <g>
        <line class="cls-3" x1="91.3" y1="30.2" x2="100.7" y2="20.8"/>
        <line class="cls-3" x1="21.1" y1="100.3" x2="30.6" y2="90.9"/>
        <line class="cls-3" x1="91.3" y1="90.9" x2="100.7" y2="100.3"/>
        <line class="cls-3" x1="21.1" y1="20.8" x2="30.6" y2="30.2"/>
      </g>
    </g>
  </g>
</svg>