<?xml version="1.0" encoding="UTF-8" standalone="no"?>
<!DOCTYPE svg PUBLIC "-//W3C//DTD SVG 1.1//EN" "http://www.w3.org/Graphics/SVG/1.1/DTD/svg11.dtd">
<svg width="100%" height="100%" viewBox="0 0 1900 838" version="1.1" xmlns="http://www.w3.org/2000/svg" xmlns:xlink="http://www.w3.org/1999/xlink" xml:space="preserve" xmlns:serif="http://www.serif.com/" style="fill-rule:evenodd;clip-rule:evenodd;stroke-linejoin:round;stroke-miterlimit:2;">
    <g transform="matrix(4.16667,0,0,4.16667,0,0)">
        <clipPath id="_clip1">
            <rect x="0" y="1" width="455.371" height="200"/>
        </clipPath>
        <g clip-path="url(#_clip1)">
            <path d="M227.685,186.723C180.415,186.723 141.957,148.277 141.957,101.003C141.957,53.738 180.415,15.277 227.685,15.277C274.961,15.277 313.422,53.738 313.422,101.003C313.422,148.277 274.961,186.723 227.685,186.723ZM362.541,140.283L319.637,140.283C321.932,134.951 323.728,129.385 325.072,123.609L379.215,123.609L393.492,109.334L327.326,109.334C327.539,106.588 327.697,103.814 327.697,101.003C327.697,98.196 327.539,95.419 327.326,92.67L410.166,92.67L424.428,78.394L325.072,78.394C323.728,72.627 321.932,67.046 319.637,61.713L441.102,61.713L455.371,47.436L312.064,47.436C294.301,19.556 263.131,1 227.685,1C192.242,1 161.071,19.556 143.305,47.436L0,47.436L14.269,61.713L135.739,61.713C133.448,67.046 131.633,72.627 130.289,78.394L30.94,78.394L45.212,92.67L128.057,92.67C127.832,95.419 127.685,98.196 127.685,101.003C127.685,103.814 127.832,106.588 128.057,109.334L61.887,109.334L76.153,123.609L130.289,123.609C131.633,129.385 133.448,134.951 135.739,140.283L92.823,140.283L107.097,154.561L143.305,154.561C161.071,182.451 192.249,201 227.685,201C263.131,201 294.301,182.451 312.064,154.561L348.266,154.561L362.541,140.283ZM296.086,123.609L286.728,123.609L286.728,78.394L296.086,78.394L296.086,123.609ZM247.42,123.609L238.422,123.609L238.422,78.394L249.461,78.394L267.492,111.188L267.492,78.394L276.449,78.394L276.449,123.609L265.424,123.609L247.42,90.982L247.42,123.609ZM228.174,123.609L218.807,123.609L218.807,78.394L228.174,78.394L228.174,123.609ZM168.109,123.609L159.276,123.609L159.276,78.394L172.433,78.394L183.963,114.494L195.397,78.394L208.551,78.394L208.551,123.609L199.435,123.609L199.435,90.138L188.848,123.609L178.988,123.609L168.109,89.883L168.109,123.609Z" style="fill:rgb(0,0,1);fill-rule:nonzero;"/>
        </g>
    </g>
</svg>
